<svg width="193" height="32" viewBox="0 0 193 32" fill="none" xmlns="http://www.w3.org/2000/svg">
<path d="M48.5515 31.7043H1.44852C0.81117 31.7043 0.289703 31.1745 0.289703 30.5217V5.81508C0.289703 5.16522 0.81117 4.63244 1.44852 4.63244H48.5515C49.1888 4.63244 49.7103 5.16522 49.7103 5.81508V30.5217C49.7103 31.1745 49.1888 31.7043 48.5515 31.7043Z" fill="#5CC8DF"/>
<path d="M48.8781 3.18613C48.8781 12.7344 48.8781 31.2274 48.8781 31.2274C48.8781 31.2274 44.5227 30.2045 37.0508 30.0856C31.2239 29.9666 25.0439 31.5872 25.0439 31.5872C25.0439 31.5872 21.5713 30.2045 14.273 29.9666C6.79812 29.7258 1.85411 31.4059 1.85411 31.4059C1.85411 31.4059 1.85411 12.7344 1.85411 3.18613C2.26611 3.06718 2.79583 2.88579 3.3844 2.76685C3.3844 2.40704 3.3844 2.04425 3.3844 1.68444C5.73869 0.964827 9.50556 0.00434494 14.2141 0.00434494C19.0993 0.00434494 22.9839 0.905355 25.3382 1.68444C25.3382 1.68444 31.4593 0.00434494 36.2268 0.00434494C41.109 0.00434494 44.9936 0.905355 47.3478 1.68444C47.3478 2.04425 47.3478 2.40704 47.3478 2.76685C47.9364 2.88579 48.4073 3.06718 48.8781 3.18613Z" fill="white"/>
<path d="M22.0754 18.8183C22.0754 19.1139 21.9016 19.2339 21.7278 18.9383L20.4531 17.4014C20.2213 17.1643 19.8737 17.1058 19.6419 17.3429L18.0775 18.6426C17.8458 18.8183 17.614 18.7597 17.614 18.4055V0.79179C17.614 0.437583 17.8458 0.259016 18.1934 0.317563L21.6119 0.967429C21.9016 1.0289 22.1913 1.32456 22.1913 1.67877L22.0754 18.8183Z" fill="#82CAA4"/>
<path d="M48.5515 4.33679H48.4356V3.62837C48.4356 3.51128 48.3777 3.39126 48.2038 3.33271C47.7403 3.21562 47.3347 3.0956 46.8712 2.97851V2.15007C46.8712 2.03298 46.8133 1.91589 46.6394 1.85441C43.163 0.733249 39.4548 0.200476 35.6915 0.200476C33.258 0.200476 30.4769 0.671775 28.5648 1.02891C26.421 1.44166 25.436 1.67878 25.0304 1.85441C24.1613 1.55876 23.2343 1.32457 22.3072 1.146C22.1913 0.908888 21.9016 0.733249 21.6699 0.671776L18.2513 0.0219097C18.0196 -0.0366375 17.7878 0.0219099 17.614 0.200476C17.5561 0.259023 17.4981 0.31757 17.4402 0.379043C16.3393 0.259023 15.2964 0.200476 14.1955 0.200476C14.1376 0.200476 14.0796 0.200476 14.0796 0.200476C10.3714 0.200476 6.72113 0.791796 3.24468 1.85441C3.1288 1.91589 3.07086 2.03298 3.07086 2.15007V2.97851C2.60734 3.0956 2.20175 3.21562 1.73822 3.33271C1.62234 3.39126 1.5644 3.51128 1.5644 3.62837V4.33679H1.44852C0.637349 4.33679 0 4.98958 0 5.81508V30.5217C0 31.3501 0.637349 32 1.44852 32H48.5515C49.3627 32 50 31.3501 50 30.5217V5.81508C50 4.98958 49.3627 4.33679 48.5515 4.33679ZM48.4356 4.63245V4.39826C48.4935 4.45681 48.4935 4.5739 48.4356 4.63245ZM46.8133 30.1089C46.8712 30.0504 46.9291 29.9919 46.9291 29.8718V3.56983C47.2188 3.62837 47.5665 3.74547 47.8562 3.80694V30.8174C46.6974 30.5832 42.5836 29.8718 36.5027 29.7547C31.8674 29.6962 27.0004 30.7003 25.2622 31.0545V30.4046C26.7107 30.0504 31.346 28.9849 35.7495 29.0463C42.4677 29.1634 46.5236 30.1675 46.5236 30.1675C46.6394 30.1675 46.7553 30.1675 46.8133 30.1089ZM47.6824 31.4087H26.7107C28.9704 30.9374 32.8524 30.2875 36.5606 30.3461C42.5256 30.4632 46.5236 31.1745 47.6824 31.4087ZM35.6915 0.791796C35.7495 0.791796 35.8074 0.791796 35.8074 0.791796C39.3968 0.791796 42.9312 1.32457 46.3497 2.38719V29.5176C45.1909 29.2805 41.4248 28.5721 35.8074 28.455C31.4618 28.3935 26.9425 29.4005 25.3201 29.7547V2.38719C25.3201 2.38719 25.3201 2.38719 25.3201 2.32864C26.3631 2.09153 31.5777 0.791796 35.6915 0.791796ZM17.9037 0.791796C17.9037 0.73325 17.9037 0.671776 17.9616 0.613229C18.0196 0.554683 18.0775 0.554683 18.1355 0.554683L21.554 1.20455C21.7278 1.2631 21.9016 1.44166 21.9016 1.62023L21.7857 18.5841L20.6849 17.2229C20.511 16.9858 20.2793 16.9272 19.9896 16.9272C19.8157 16.9272 19.584 16.9858 19.4102 17.1058L17.8458 18.4055V0.791796H17.9037ZM3.65027 2.38719C7.01084 1.38312 10.4873 0.850342 14.0796 0.791796C15.1805 0.791796 16.2814 0.850342 17.3822 0.908889V18.4055C17.3822 18.8183 17.614 18.9383 17.6719 18.9968C17.7878 19.0554 18.0196 19.1139 18.3093 18.8797L19.8737 17.5771C19.9896 17.46 20.1634 17.5185 20.2793 17.6385L21.496 19.1754C21.6699 19.4096 21.8437 19.4096 21.9596 19.4096C22.0175 19.4096 22.0754 19.4096 22.0754 19.4096C22.1913 19.351 22.3651 19.2339 22.3651 18.8797L22.481 1.85441C23.2343 2.03298 23.9875 2.20862 24.7407 2.44573C24.7407 2.44573 24.7407 2.44573 24.7407 2.50428V29.9919C24.1034 29.7547 20.9166 28.6306 14.8328 28.455C14.3693 28.455 13.9058 28.455 13.4423 28.455C8.40141 28.455 4.75114 29.4591 3.65027 29.8133V2.38719ZM2.14381 3.86549C2.43351 3.74547 2.78116 3.68692 3.07086 3.62837V30.1089C3.07086 30.226 3.1288 30.2875 3.18674 30.3461C3.24468 30.4046 3.36057 30.4046 3.47645 30.4046C3.53439 30.4046 8.11171 28.7507 14.8328 28.9849C21.3801 29.222 24.6248 30.5217 24.6248 30.5832C24.6828 30.5832 24.6828 30.5832 24.7407 30.5832V31.3501C24.1613 31.113 20.7428 29.9919 14.1376 29.7547C13.6161 29.7547 13.1526 29.7547 12.689 29.7547C7.30054 29.7547 3.36057 30.7588 2.14381 31.113V3.86549ZM23.1763 31.4087H2.78116C4.51938 30.9374 8.63318 30.1089 14.0796 30.2875C18.5411 30.4046 21.554 30.9959 23.1763 31.4087ZM0.579408 30.5217V5.81508C0.579408 5.34379 0.984993 4.92811 1.44852 4.92811H1.5644V31.4087C1.5644 31.4087 1.5644 31.4087 1.5644 31.4672H1.44852C0.927053 31.4087 0.579408 31.0545 0.579408 30.5217ZM49.4206 30.5217C49.4206 30.9959 49.015 31.4087 48.5515 31.4087H48.3777C48.4356 31.3501 48.4935 31.2916 48.4935 31.233V4.92811H48.6094C49.0729 4.92811 49.4785 5.34379 49.4785 5.81508V30.5217H49.4206Z" fill="#78633F"/>
<path d="M57.416 24.24C56.136 24.24 55.168 23.88 54.512 23.16C53.856 22.424 53.528 21.376 53.528 20.016V19.056H56.024V20.208C56.024 21.296 56.48 21.84 57.392 21.84C57.84 21.84 58.176 21.712 58.4 21.456C58.64 21.184 58.76 20.752 58.76 20.16C58.76 19.456 58.6 18.84 58.28 18.312C57.96 17.768 57.368 17.12 56.504 16.368C55.416 15.408 54.656 14.544 54.224 13.776C53.792 12.992 53.576 12.112 53.576 11.136C53.576 9.808 53.912 8.784 54.584 8.064C55.256 7.328 56.232 6.96 57.512 6.96C58.776 6.96 59.728 7.328 60.368 8.064C61.024 8.784 61.352 9.824 61.352 11.184V11.88H58.856V11.016C58.856 10.44 58.744 10.024 58.52 9.768C58.296 9.496 57.968 9.36 57.536 9.36C56.656 9.36 56.216 9.896 56.216 10.968C56.216 11.576 56.376 12.144 56.696 12.672C57.032 13.2 57.632 13.84 58.496 14.592C59.6 15.552 60.36 16.424 60.776 17.208C61.192 17.992 61.4 18.912 61.4 19.968C61.4 21.344 61.056 22.4 60.368 23.136C59.696 23.872 58.712 24.24 57.416 24.24ZM62.9137 7.2H66.8017C68.1137 7.2 69.0977 7.552 69.7537 8.256C70.4097 8.96 70.7377 9.992 70.7377 11.352V13.008C70.7377 14.368 70.4097 15.4 69.7537 16.104C69.0977 16.808 68.1137 17.16 66.8017 17.16H65.5537V24H62.9137V7.2ZM66.8017 14.76C67.2337 14.76 67.5537 14.64 67.7617 14.4C67.9857 14.16 68.0977 13.752 68.0977 13.176V11.184C68.0977 10.608 67.9857 10.2 67.7617 9.96C67.5537 9.72 67.2337 9.6 66.8017 9.6H65.5537V14.76H66.8017ZM72.1715 7.2H79.3715V9.6H74.8115V14.04H78.4355V16.44H74.8115V21.6H79.3715V24H72.1715V7.2ZM82.9303 7.2H86.5063L89.2423 24H86.6023L86.1223 20.664V20.712H83.1223L82.6423 24H80.1943L82.9303 7.2ZM85.8103 18.432L84.6343 10.128H84.5863L83.4342 18.432H85.8103ZM90.5231 7.2H93.1631V14.28L96.5231 7.2H99.1631L96.0191 13.368L99.2111 24H96.4511L94.2191 16.512L93.1631 18.648V24H90.5231V7.2ZM103.806 24.24C102.542 24.24 101.574 23.88 100.902 23.16C100.246 22.44 99.9176 21.424 99.9176 20.112V11.088C99.9176 9.776 100.246 8.76 100.902 8.04C101.574 7.32 102.542 6.96 103.806 6.96C105.07 6.96 106.03 7.32 106.686 8.04C107.358 8.76 107.694 9.776 107.694 11.088V12.864H105.198V10.92C105.198 9.88 104.758 9.36 103.878 9.36C102.998 9.36 102.558 9.88 102.558 10.92V20.304C102.558 21.328 102.998 21.84 103.878 21.84C104.758 21.84 105.198 21.328 105.198 20.304V17.736H107.694V20.112C107.694 21.424 107.358 22.44 106.686 23.16C106.03 23.88 105.07 24.24 103.806 24.24ZM109.273 7.2H111.913V21.6H116.257V24H109.273V7.2ZM119.657 7.2H123.233L125.969 24H123.329L122.849 20.664V20.712H119.849L119.369 24H116.921L119.657 7.2ZM122.537 18.432L121.361 10.128H121.313L120.161 18.432H122.537ZM130.611 24.24C129.331 24.24 128.363 23.88 127.707 23.16C127.051 22.424 126.723 21.376 126.723 20.016V19.056H129.219V20.208C129.219 21.296 129.675 21.84 130.587 21.84C131.035 21.84 131.371 21.712 131.595 21.456C131.835 21.184 131.955 20.752 131.955 20.16C131.955 19.456 131.795 18.84 131.475 18.312C131.155 17.768 130.563 17.12 129.699 16.368C128.611 15.408 127.851 14.544 127.419 13.776C126.987 12.992 126.771 12.112 126.771 11.136C126.771 9.808 127.107 8.784 127.779 8.064C128.451 7.328 129.427 6.96 130.707 6.96C131.971 6.96 132.923 7.328 133.563 8.064C134.219 8.784 134.547 9.824 134.547 11.184V11.88H132.051V11.016C132.051 10.44 131.939 10.024 131.715 9.768C131.491 9.496 131.163 9.36 130.731 9.36C129.851 9.36 129.411 9.896 129.411 10.968C129.411 11.576 129.571 12.144 129.891 12.672C130.227 13.2 130.827 13.84 131.691 14.592C132.795 15.552 133.555 16.424 133.971 17.208C134.387 17.992 134.595 18.912 134.595 19.968C134.595 21.344 134.251 22.4 133.563 23.136C132.891 23.872 131.907 24.24 130.611 24.24ZM139.541 24.24C138.261 24.24 137.293 23.88 136.637 23.16C135.981 22.424 135.653 21.376 135.653 20.016V19.056H138.149V20.208C138.149 21.296 138.605 21.84 139.517 21.84C139.965 21.84 140.301 21.712 140.525 21.456C140.765 21.184 140.885 20.752 140.885 20.16C140.885 19.456 140.725 18.84 140.405 18.312C140.085 17.768 139.493 17.12 138.629 16.368C137.541 15.408 136.781 14.544 136.349 13.776C135.917 12.992 135.701 12.112 135.701 11.136C135.701 9.808 136.037 8.784 136.709 8.064C137.381 7.328 138.357 6.96 139.637 6.96C140.901 6.96 141.853 7.328 142.493 8.064C143.149 8.784 143.477 9.824 143.477 11.184V11.88H140.981V11.016C140.981 10.44 140.869 10.024 140.645 9.768C140.421 9.496 140.093 9.36 139.661 9.36C138.781 9.36 138.341 9.896 138.341 10.968C138.341 11.576 138.501 12.144 138.821 12.672C139.157 13.2 139.757 13.84 140.621 14.592C141.725 15.552 142.485 16.424 142.901 17.208C143.317 17.992 143.525 18.912 143.525 19.968C143.525 21.344 143.181 22.4 142.493 23.136C141.821 23.872 140.837 24.24 139.541 24.24Z" fill="#0A2472"/>
</svg>
